<svg width="489" height="30" viewBox="0 0 489 30" fill="none" xmlns="http://www.w3.org/2000/svg">
<path d="M18.9453 21.0312H6.03516L3.10547 29H0.585938L11.3477 0.5625H13.6328L24.3945 29H21.8945L18.9453 21.0312ZM6.77734 18.9805H18.1836L12.4805 3.49219L6.77734 18.9805ZM67.4922 29H65.0898L48.7422 4.66406V29H46.3203V0.5625H48.7422L65.1094 24.918V0.5625H67.4922V29ZM99.7344 16.3242C99.7344 18.9414 99.2786 21.2396 98.3672 23.2188C97.4688 25.1979 96.1797 26.7214 94.5 27.7891C92.8203 28.8568 90.8802 29.3906 88.6797 29.3906C85.3594 29.3906 82.6771 28.2057 80.6328 25.8359C78.5885 23.4531 77.5664 20.2435 77.5664 16.207V13.2773C77.5664 10.6862 78.0221 8.39453 78.9336 6.40234C79.8581 4.39714 81.1602 2.86068 82.8398 1.79297C84.5195 0.71224 86.4531 0.171875 88.6406 0.171875C90.8281 0.171875 92.7552 0.699219 94.4219 1.75391C96.1016 2.80859 97.3971 4.29948 98.3086 6.22656C99.2201 8.15365 99.6953 10.3867 99.7344 12.9258V16.3242ZM97.332 13.2383C97.332 9.8138 96.5573 7.13151 95.0078 5.19141C93.4583 3.2513 91.3359 2.28125 88.6406 2.28125C85.9974 2.28125 83.888 3.25781 82.3125 5.21094C80.75 7.15104 79.9688 9.86589 79.9688 13.3555V16.3242C79.9688 19.6966 80.75 22.3724 82.3125 24.3516C83.875 26.3177 85.9974 27.3008 88.6797 27.3008C91.401 27.3008 93.5234 26.3307 95.0469 24.3906C96.5703 22.4375 97.332 19.7227 97.332 16.2461V13.2383ZM128.539 2.61328H118.793V29H116.391V2.61328H106.664V0.5625H128.539V2.61328ZM147.773 17.1641H139.512V29H137.09V0.5625H146.328C149.362 0.5625 151.732 1.29818 153.438 2.76953C155.143 4.24089 155.996 6.29818 155.996 8.94141C155.996 10.7643 155.462 12.3724 154.395 13.7656C153.327 15.1589 151.895 16.1224 150.098 16.6562L157.207 28.7461V29H154.648L147.773 17.1641ZM139.512 15.1133H146.875C148.893 15.1133 150.514 14.5404 151.738 13.3945C152.962 12.2487 153.574 10.7643 153.574 8.94141C153.574 6.9362 152.936 5.38021 151.66 4.27344C150.384 3.16667 148.594 2.61328 146.289 2.61328H139.512V15.1133ZM182.242 15.3672H168.941V26.9688H184.234V29H166.539V0.5625H184.137V2.61328H168.941V13.3359H182.242V15.3672ZM228.211 29H225.809L209.461 4.66406V29H207.039V0.5625H209.461L225.828 24.918V0.5625H228.211V29ZM255.141 15.3672H241.84V26.9688H257.133V29H239.438V0.5625H257.035V2.61328H241.84V13.3359H255.141V15.3672ZM271.465 21.3242L272.344 25.7383L273.418 21.5195L279.59 0.5625H281.758L287.852 21.5195L288.906 25.7773L289.844 21.3242L294.98 0.5625H297.441L290.156 29H287.852L281.406 6.75391L280.684 3.94141L279.98 6.75391L273.379 29H271.074L263.809 0.5625H266.27L271.465 21.3242ZM322.164 22.0078C322.164 20.4323 321.611 19.1888 320.504 18.2773C319.397 17.3529 317.372 16.4805 314.43 15.6602C311.487 14.8268 309.339 13.9219 307.984 12.9453C306.057 11.5651 305.094 9.75521 305.094 7.51562C305.094 5.34115 305.986 3.57682 307.77 2.22266C309.566 0.855469 311.858 0.171875 314.645 0.171875C316.533 0.171875 318.219 0.536458 319.703 1.26562C321.201 1.99479 322.359 3.01042 323.18 4.3125C324 5.61458 324.41 7.06641 324.41 8.66797H321.988C321.988 6.72786 321.324 5.17188 319.996 4C318.668 2.8151 316.884 2.22266 314.645 2.22266C312.47 2.22266 310.738 2.71094 309.449 3.6875C308.16 4.65104 307.516 5.91406 307.516 7.47656C307.516 8.92188 308.095 10.1003 309.254 11.0117C310.413 11.9232 312.268 12.7305 314.82 13.4336C317.372 14.1237 319.306 14.8464 320.621 15.6016C321.936 16.3438 322.926 17.2357 323.59 18.2773C324.254 19.319 324.586 20.5495 324.586 21.9688C324.586 24.2083 323.688 26.0052 321.891 27.3594C320.107 28.7135 317.75 29.3906 314.82 29.3906C312.815 29.3906 310.973 29.0326 309.293 28.3164C307.626 27.6003 306.357 26.5977 305.484 25.3086C304.625 24.0195 304.195 22.5417 304.195 20.875H306.598C306.598 22.8802 307.346 24.4622 308.844 25.6211C310.341 26.7799 312.333 27.3594 314.82 27.3594C317.034 27.3594 318.811 26.8711 320.152 25.8945C321.493 24.918 322.164 23.6224 322.164 22.0078ZM336.203 26.9688H350.246V29H333.781V0.5625H336.203V26.9688ZM374.578 15.3672H361.277V26.9688H376.57V29H358.875V0.5625H376.473V2.61328H361.277V13.3359H374.578V15.3672ZM405.336 2.61328H395.59V29H393.188V2.61328H383.461V0.5625H405.336V2.61328ZM433.555 2.61328H423.809V29H421.406V2.61328H411.68V0.5625H433.555V2.61328ZM457.867 15.3672H444.566V26.9688H459.859V29H442.164V0.5625H459.762V2.61328H444.566V13.3359H457.867V15.3672ZM479.562 17.1641H471.301V29H468.879V0.5625H478.117C481.151 0.5625 483.521 1.29818 485.227 2.76953C486.932 4.24089 487.785 6.29818 487.785 8.94141C487.785 10.7643 487.251 12.3724 486.184 13.7656C485.116 15.1589 483.684 16.1224 481.887 16.6562L488.996 28.7461V29H486.438L479.562 17.1641ZM471.301 15.1133H478.664C480.682 15.1133 482.303 14.5404 483.527 13.3945C484.751 12.2487 485.363 10.7643 485.363 8.94141C485.363 6.9362 484.725 5.38021 483.449 4.27344C482.173 3.16667 480.383 2.61328 478.078 2.61328H471.301V15.1133Z" fill="black"/>
</svg>
