<svg id="Capa_1" enable-background="new 0 0 512.078 512.078" height="512" viewBox="0 0 512.078 512.078" width="512" xmlns="http://www.w3.org/2000/svg"><g><path d="m88.094 479.482c0 18.002 14.593 32.595 32.595 32.595h346.39v-65.191h-346.389c-18.002.001-32.596 14.594-32.596 32.596z"/><path d="m44.998 59.481h43.096v30h-43.096z"/><path d="m44.998 133.962h43.096v30h-43.096z"/><path d="m44.998 208.444h43.096v30h-43.096z"/><path d="m44.998 282.924h43.096v30h-43.096z"/><path d="m44.998 357.406h43.096v30h-43.096z"/><path d="m277.587 185.837c18.464 0 33.485-15.021 33.485-33.486s-15.021-33.486-33.485-33.486c-18.465 0-33.487 15.021-33.487 33.486s15.022 33.486 33.487 33.486z"/><path d="m328.801 215.837h-102.428c-2.757 0-5 2.243-5 5v86.363h112.428v-86.363c0-2.756-2.243-5-5-5z"/><path d="m119.982 0c-17.611 0-31.888 14.277-31.888 31.888v27.593h43.096v30h-43.096v44.481h43.096v30h-43.096v44.481h43.096v30h-43.096v44.48h43.096v30h-43.096v44.481h43.096v30h-43.096v38.66c9.5-5.819 20.662-9.179 32.595-9.179h346.39v-416.885zm243.819 337.201h-172.428v-116.364c0-18.417 14.301-33.546 32.381-34.892-6.108-9.752-9.653-21.264-9.653-33.595 0-35.007 28.48-63.486 63.487-63.486 35.006 0 63.485 28.479 63.485 63.486 0 12.331-3.545 23.843-9.653 33.594 18.079 1.345 32.381 16.475 32.381 34.892z"/></g></svg>