<?xml version="1.0"?>
<svg xmlns="http://www.w3.org/2000/svg" version="1.1" width="512" height="512" x="0" y="0" viewBox="0 0 512 512" style="enable-background:new 0 0 512 512" xml:space="preserve" class=""><g><linearGradient xmlns="http://www.w3.org/2000/svg" id="New_Gradient_Swatch_11" gradientUnits="userSpaceOnUse" x1="284.734" x2="387.264" y1="442.264" y2="339.734"><stop stop-opacity="1" stop-color="#60c6be" offset="0.011"/><stop stop-opacity="1" stop-color="#cfd8dc" offset="1"/></linearGradient><linearGradient xmlns="http://www.w3.org/2000/svg" xmlns:xlink="http://www.w3.org/1999/xlink" id="New_Gradient_Swatch_11-2" x1="95.678" x2="256.323" xlink:href="#New_Gradient_Swatch_11" y1="471.322" y2="310.677"/><linearGradient xmlns="http://www.w3.org/2000/svg" id="New_Gradient_Swatch_14" gradientUnits="userSpaceOnUse" x1="113.306" x2="398.694" y1="351.694" y2="66.306"><stop offset=".015" stop-color="#a6a6b9"/><stop offset="1" stop-color="#cacad5"/></linearGradient><linearGradient xmlns="http://www.w3.org/2000/svg" id="New_Gradient_Swatch_3" gradientUnits="userSpaceOnUse" x1="152.811" x2="359.189" y1="313.189" y2="106.811"><stop offset=".011" stop-color="#606082"/><stop offset="1" stop-color="#83839e"/></linearGradient><linearGradient xmlns="http://www.w3.org/2000/svg" id="New_Gradient_Swatch_5" gradientUnits="userSpaceOnUse" x1="201.84" x2="310.159" y1="286.194" y2="177.875"><stop offset=".011" stop-color="#f8c73f"/><stop offset="1" stop-color="#fada7f"/></linearGradient><g xmlns="http://www.w3.org/2000/svg" id="_18-brand_champion" data-name="18-brand champion"><g id="gradient"><path d="m441.872 431.089-116.23-152.822a12 12 0 0 0 -16.817-2.288l-76.41 58.121a12 12 0 0 0 -2.287 16.816l116.23 152.822a12 12 0 0 0 9.55 4.736c.385 0 .773-.019 1.16-.056a12 12 0 0 0 9.611-6.65l21.03-42.776 46.838-8.841a12 12 0 0 0 7.325-19.057z" fill="url(#New_Gradient_Swatch_11)" data-original="url(#New_Gradient_Swatch_11)" style=""/><path d="m279.585 334.1-76.411-58.116a12 12 0 0 0 -16.816 2.288l-116.23 152.817a12 12 0 0 0 7.325 19.057l46.839 8.841 21.029 42.776a12 12 0 0 0 9.611 6.65q.582.055 1.16.056a12 12 0 0 0 9.55-4.736l116.23-152.822a12 12 0 0 0 -2.287-16.811z" fill="url(#New_Gradient_Swatch_11-2)" data-original="url(#New_Gradient_Swatch_11-2)" style=""/><path d="m444.819 209 9.091-39.832a12 12 0 0 0 -2.317-10.152l-25.473-31.942-9.091-39.831a12 12 0 0 0 -6.492-8.141l-36.809-17.727-25.474-31.942a12 12 0 0 0 -9.382-4.518h-40.855l-36.81-17.727a12.005 12.005 0 0 0 -10.414 0l-36.81 17.727h-40.855a12 12 0 0 0 -9.381 4.518l-25.474 31.942-36.809 17.725a12 12 0 0 0 -6.493 8.141l-9.091 39.833-25.473 31.942a12 12 0 0 0 -2.318 10.152l9.092 39.832-9.092 39.832a12 12 0 0 0 2.318 10.152l25.473 31.942 9.091 39.831a12 12 0 0 0 6.493 8.141l36.809 17.727 25.474 31.942a12 12 0 0 0 9.381 4.518h40.855l36.81 17.727a12.005 12.005 0 0 0 10.414 0l36.81-17.727h40.855a12 12 0 0 0 9.382-4.518l25.474-31.942 36.809-17.725a12 12 0 0 0 6.492-8.141l9.091-39.831 25.473-31.942a12 12 0 0 0 2.317-10.152z" fill="url(#New_Gradient_Swatch_14)" data-original="url(#New_Gradient_Swatch_14)" style=""/><circle cx="256" cy="210" fill="url(#New_Gradient_Swatch_3)" r="146" data-original="url(#New_Gradient_Swatch_3)" style=""/><path d="m325.365 193.443a12 12 0 0 0 -13.125 0l-24.6 16.067-21.391-35.1a12 12 0 0 0 -20.494 0l-21.39 35.1-24.6-16.067a12 12 0 0 0 -18.4 12.02l11.419 68.511a12 12 0 0 0 11.833 10.026h102.766a12 12 0 0 0 11.837-10.027l11.419-68.511a12 12 0 0 0 -5.274-12.019z" fill="url(#New_Gradient_Swatch_5)" data-original="url(#New_Gradient_Swatch_5)" style=""/><g fill="#fce6aa"><circle cx="256" cy="148.326" r="12" fill="#fce6aa" data-original="#fce6aa" style=""/><circle cx="340" cy="180" r="12" fill="#fce6aa" data-original="#fce6aa" style=""/><circle cx="172" cy="180" r="12" fill="#fce6aa" data-original="#fce6aa" style=""/></g></g></g></g></svg>
