<svg height="512" viewBox="0 0 64 64" width="512" xmlns="http://www.w3.org/2000/svg"><circle cx="32" cy="32" fill="#394d5c" r="29"/><path d="m57 32c0 .33-.01.67-.02 1a25 25 0 0 1 -23.98 23.98c-.33.01-.67.02-1 .02s-.67-.01-1-.02a24.817 24.817 0 0 1 -8.02-1.66c-.63-.24-1.25-.51-1.85-.81a24.578 24.578 0 0 1 -6.08-4.14c-.49-.45-.97-.93-1.42-1.42a24.509 24.509 0 0 1 -3.74-5.28 18.529 18.529 0 0 1 -.85-1.8 24.785 24.785 0 0 1 -2.02-8.87c-.01-.33-.02-.67-.02-1s.01-.67.02-1a24.785 24.785 0 0 1 2.02-8.87 18.529 18.529 0 0 1 .85-1.8 24.509 24.509 0 0 1 3.74-5.28c.45-.49.93-.97 1.42-1.42a24.578 24.578 0 0 1 6.08-4.14c.6-.3 1.22-.57 1.85-.81a24.817 24.817 0 0 1 8.02-1.66c.33-.01.67-.02 1-.02s.67.01 1 .02a24.817 24.817 0 0 1 8.02 1.66c.63.24 1.25.51 1.85.81a24.578 24.578 0 0 1 6.08 4.14c.49.45.97.93 1.42 1.42a24.509 24.509 0 0 1 3.74 5.28 18.529 18.529 0 0 1 .85 1.8 24.785 24.785 0 0 1 2.02 8.87c.01.33.02.67.02 1z" fill="#f4f4e6"/><path d="m61 61h-20l10-22z" fill="#f9bb4b"/><path d="m50 46h2v8h-2z" fill="#394d5c"/><path d="m50 56h2v2h-2z" fill="#394d5c"/><g fill="#dda243"><path d="m33 7.02v4.98h-2v-4.98c.33-.01.67-.02 1-.02s.67.01 1 .02z"/><path d="m17.71 16.29-1.42 1.42-2.66-2.66c.45-.49.93-.97 1.42-1.42z"/><path d="m12 31v2h-4.98c-.01-.33-.02-.67-.02-1s.01-.67.02-1z"/><path d="m33 52v4.98c-.33.01-.67.02-1 .02s-.67-.01-1-.02v-4.98z"/><path d="m17.71 47.71-2.66 2.66c-.49-.45-.97-.93-1.42-1.42l2.66-2.66z"/><path d="m57 32c0 .33-.01.67-.02 1h-4.98v-2h4.98c.01.33.02.67.02 1z"/><path d="m50.37 15.05-2.66 2.66-1.42-1.42 2.66-2.66c.49.45.97.93 1.42 1.42z"/><path d="m13.45 41.89-3.56 1.78a18.529 18.529 0 0 1 -.85-1.8l3.51-1.76z"/><path d="m24.83 52.55-1.85 2.77c-.63-.24-1.25-.51-1.85-.81l2.04-3.06z"/><path d="m13.45 22.11-.9 1.78-3.51-1.76a18.529 18.529 0 0 1 .85-1.8z"/><path d="m24.83 11.45-1.66 1.1-2.04-3.06c.6-.3 1.22-.57 1.85-.81z"/><path d="m54.96 22.13-3.51 1.76-.9-1.78 3.56-1.78a18.529 18.529 0 0 1 .85 1.8z"/><path d="m42.87 9.49-2.04 3.06-1.66-1.1 1.85-2.77c.63.24 1.25.51 1.85.81z"/></g><path d="m31 14h2v16h-2z" fill="#394d5c"/><path d="m34 31h12v2h-12z" fill="#394d5c"/><path d="m30 39-5 8a13.834 13.834 0 0 0 7 2 13.834 13.834 0 0 0 7-2l-5-8z" fill="#aabece"/><path d="m25 28-9-2a11.638 11.638 0 0 1 3-7 11.638 11.638 0 0 1 7-3l2 9z" fill="#aabece"/><path d="m39 28 9-2a11.638 11.638 0 0 0 -3-7 11.638 11.638 0 0 0 -7-3l-2 9z" fill="#aabece"/><path d="m16 36h2v2h-2z" fill="#32b1cc"/><path d="m20 39h2v2h-2z" fill="#32b1cc"/><circle cx="32" cy="32" fill="#e1462b" r="3"/></svg>