<?xml version="1.0"?>
<svg xmlns="http://www.w3.org/2000/svg"  version="1.1" width="24" height="24" x="0" y="0" viewBox="0 0 64 64" style="enable-background:new 0 0 512 512" xml:space="preserve" class=""><g><g xmlns="http://www.w3.org/2000/svg" id="Outline"><g><path d="M24,28a1,1,0,0,0,1-1v-.1A5.016,5.016,0,0,0,28.9,23H29a1,1,0,0,0,0-2h-.1A5.016,5.016,0,0,0,25,17.1V17a1,1,0,0,0-2,0v.1A5.016,5.016,0,0,0,19.1,21H19a1,1,0,0,0,0,2h.1A5.016,5.016,0,0,0,23,26.9V27A1,1,0,0,0,24,28Zm-2.827-5.035a.977.977,0,0,0,0-1.93,3,3,0,0,1,1.862-1.862.977.977,0,0,0,1.93,0,3,3,0,0,1,1.862,1.862.977.977,0,0,0,0,1.93,3,3,0,0,1-1.862,1.862.977.977,0,0,0-1.93,0A3,3,0,0,1,21.173,22.965Z" fill="#e5e5e5" data-original="#000000" style="" class=""/><circle cx="24" cy="22" r="1" fill="#e5e5e5" data-original="#000000" style="" class=""/><path d="M41,15H37a1,1,0,0,0,0,2h4a1,1,0,0,0,0-2Z" fill="#e5e5e5" data-original="#000000" style="" class=""/><path d="M41,19H39a1,1,0,0,0,0,2h2a1,1,0,0,0,0-2Z" fill="#e5e5e5" data-original="#000000" style="" class=""/><path d="M12,20V17a1,1,0,0,0-.758-.97l-4-1a1,1,0,1,0-.484,1.94L10,17.781V19H7a1,1,0,0,0,0,2h4A1,1,0,0,0,12,20Z" fill="#e5e5e5" data-original="#000000" style="" class=""/><circle cx="31" cy="17" r="1" fill="#e5e5e5" data-original="#000000" style="" class=""/><circle cx="16" cy="19" r="1" fill="#e5e5e5" data-original="#000000" style="" class=""/><circle cx="34" cy="21" r="1" fill="#e5e5e5" data-original="#000000" style="" class=""/><circle cx="8" cy="24" r="1" fill="#e5e5e5" data-original="#000000" style="" class=""/><path d="M20,35.092a100.119,100.119,0,0,0-10.142.918,1,1,0,0,0,.284,1.98A97.97,97.97,0,0,1,37,37.871v1.983a99.924,99.924,0,0,0-27.142.156,1,1,0,0,0,.284,1.98,97.928,97.928,0,0,1,27.716,0A1,1,0,0,0,39,41V37a1,1,0,0,0-.858-.99A100.119,100.119,0,0,0,28,35.092V32.578A147.564,147.564,0,0,1,44.858,33.99.969.969,0,0,0,45,34a1,1,0,0,0,1-1V29a1,1,0,0,0-2,0v2.852c-.576-.078-1.154-.134-1.731-.205l-1.321-3.963A1,1,0,0,0,40,27H38.333L34.6,24.2a1,1,0,0,0-1.307.093l-2,2a1,1,0,0,0-.125,1.262l2.169,3.254a149.171,149.171,0,0,0-18.674,0l2.169-3.254a1,1,0,0,0-.125-1.262l-2-2A1,1,0,0,0,13.4,24.2L9.667,27H8a1,1,0,0,0-.948.684L5.731,31.647c-.577.071-1.155.127-1.731.205v-19.7a149.4,149.4,0,0,0,40,0V25a1,1,0,0,0,2,0V11a1,1,0,0,0-1.142-.99,147.447,147.447,0,0,1-41.716,0A1,1,0,0,0,2,11V33a1,1,0,0,0,1.142.99A147.564,147.564,0,0,1,20,32.578Zm13.287-7.965.807-.807L37.4,28.8a1,1,0,0,0,.6.2h1.279l.8,2.388c-1.4-.151-2.8-.277-4.208-.389ZM26,32.543v2.5q-2-.041-4,0v-2.5Q24,32.516,26,32.543ZM8.721,29H10a1,1,0,0,0,.6-.2l3.306-2.48.807.807L12.133,31c-1.4.112-2.807.238-4.208.389Z" fill="#e5e5e5" data-original="#000000" style="" class=""/><path d="M62,27V17a1,1,0,0,0-1-1H49a1,1,0,0,0-1,1V38H45a3,3,0,0,0-3,3v2a1,1,0,0,1-1,1H28a3,3,0,0,0-3,3v1H10a1,1,0,0,0-1,1V61a1,1,0,0,0,1,1H38a1,1,0,0,0,1-1V49a1,1,0,0,0-1-1H27V47a1,1,0,0,1,1-1H41a3,3,0,0,0,3-3V41a1,1,0,0,1,1-1H58v3a1,1,0,0,1-1,1H52a3,3,0,0,0-3,3v1.5a2.856,2.856,0,0,0-.488.2l-1.5.857A3.006,3.006,0,0,0,45.5,52.161V58a3,3,0,0,0,3,3h3a3,3,0,0,0,3-3,1,1,0,0,0-2,0,1,1,0,0,1-1,1h-3a1,1,0,0,1-1-1V55H49a1,1,0,0,0,0-2H47.5v-.839a1,1,0,0,1,.5-.869l1.5-.856a1,1,0,0,1,.992,0l1.5.857a1,1,0,0,1,.5.869V54a1,1,0,0,0,2,0V52.161a3.006,3.006,0,0,0-1.512-2.605l-1.5-.858A3.028,3.028,0,0,0,51,48.5V47a1,1,0,0,1,1-1h5a3,3,0,0,0,3-3V40h1a1,1,0,0,0,1-1V31a1,1,0,0,0-2,0v7H50V28H61A1,1,0,0,0,62,27ZM37,54v2H31V54Zm-8,2H27V54h2ZM11,54h2v2H11Zm4,0h2v2H15Zm4,0h2v2H19Zm4,0h2v2H23Zm2-2H23V50h2Zm-4,0H19V50h2Zm-4,0H15V50h2Zm-6-2h2v2H11Zm0,8h2v2H11Zm4,0h2v2H15Zm4,0h2v2H19Zm4,0h2v2H23Zm4,0h2v2H27Zm4,0h2v2H31Zm6,2H35V58h2Zm0-8H35V50h2Zm-4,0H31V50h2Zm-4,0H27V50h2ZM50,23h7a1,1,0,0,0,0-2H50V18H60v8H50Z" fill="#e5e5e5" data-original="#000000" style="" class=""/><path d="M52,33a3,3,0,1,0,3-3A3,3,0,0,0,52,33Zm4,0a1,1,0,1,1-1-1A1,1,0,0,1,56,33Z" fill="#e5e5e5" data-original="#000000" style="" class=""/></g></g></g></svg>
