<?xml version="1.0"?>
<svg xmlns="http://www.w3.org/2000/svg"  version="1.1" width="512" height="512" x="0" y="0" viewBox="0 0 512 512" style="enable-background:new 0 0 512 512" xml:space="preserve" class=""><g><g xmlns="http://www.w3.org/2000/svg"><path d="m512 136v240c0 30.88-25.12 56-56 56h-400c-30.88 0-56-25.12-56-56v-240c0-30.88 25.12-56 56-56h400c30.88 0 56 25.12 56 56z" fill="#ededed" data-original="#acebe2" style="" class=""/><path d="m512 136v240c0 30.88-25.12 56-56 56h-32c30.88 0 56-25.12 56-56v-240c0-30.88-25.12-56-56-56h32c30.88 0 56 25.12 56 56z" fill="#cbcbcb" data-original="#98d7ce" style="" class=""/><path d="m112 352h-16c-8.836 0-16-7.164-16-16v-16c0-8.836 7.164-16 16-16h16c8.836 0 16 7.164 16 16v16c0 8.836-7.164 16-16 16z" fill="#ffffff" data-original="#f8e9d2" style="" class=""/><path d="m0 168h512v32h-512z" fill="#000000" data-original="#f79caf" style="" class=""/><path d="m480 168h32v32h-32z" fill="#000000" data-original="#e3889b" style="" class=""/></g></g></svg>
