<svg xmlns="http://www.w3.org/2000/svg" xmlns:xlink="http://www.w3.org/1999/xlink" id="Layer_1" x="0px" y="0px" viewBox="0 0 511 511" style="enable-background:new 0 0 511 511;" xml:space="preserve">
<style type="text/css">
	.st0{fill:#393D46;}
</style>
<title>Logistics</title>
<path class="st0" d="M462.6,304.1l-9.2-52.8c-0.6-3.7-1.6-7.3-3-10.8c-7.8-19-26.3-31.5-46.8-31.5h-68c-4.3,0.2-7.8,3.7-7.9,8V334  H318V102.2c0.1-27.9-22.5-50.5-50.4-50.6c-0.1,0-0.2,0-0.2,0H50.9C22.9,51.5,0.1,74.1,0,102.1c0,0,0,0,0,0.1v300.3  c0,6.5,5.3,12.3,11.9,12.3H57c1.9,11.2,7.3,21.5,15.4,29.4c20.9,20.2,54,20.2,74.9,0.1c8.1-8,13.5-18.3,15.4-29.5H358  c1.9,11.2,7.3,21.5,15.4,29.4c20.9,20.2,54,20.2,74.9,0.1c8.1-8,13.5-18.3,15.4-29.5h35.4c6.5,0,11.9-5.8,11.9-12.3v-37.9  C511,338,489.6,305.9,462.6,304.1z M15.1,102.2c0-19.7,16-35.6,35.7-35.5c0,0,0.1,0,0.1,0h216.6c19.5-0.1,35.4,15.7,35.5,35.3  c0,0.1,0,0.2,0,0.3V334H15.1V102.2z M148.3,406.7c-0.5,21.2-18.1,38.1-39.4,37.6c-20.6-0.5-37.1-17-37.6-37.6c0-0.3,0-0.6,0-0.9  c0-9.7,3.7-19.1,10.4-26.2l0,0l0.1-0.1l0.1-0.1c14.6-15.4,38.9-16.1,54.3-1.4c0.5,0.5,1,1,1.4,1.4c0,0,0.1,0.1,0.1,0.1l0.1,0.1  c6.7,7.1,10.4,16.5,10.4,26.2C148.3,406,148.3,406.3,148.3,406.7z M327.7,399.8H163c-1.2-11.4-6.1-22-14-30.3c0,0-0.1-0.3-0.1-0.4  c-0.1-0.1-0.1-0.2-0.2-0.2c-20.4-21.4-54.3-22.3-75.7-1.9c-0.7,0.6-1.3,1.3-1.9,1.9c-0.1,0.1-0.2,0.2-0.2,0.2c0,0-0.1,0.3-0.1,0.4  c-7.9,8.3-12.8,19-14,30.3H15.1v-50.7h312.6V399.8z M403.2,224.1h0.4c14.4,0.1,27.4,8.8,32.9,22.2c1,2.4,1.6,4.9,2,7.4l8.8,50.2  h-44.1V224.1z M342.8,224.1h45.3v79.8h-45.3V224.1z M449.3,406.7c-0.5,21.2-18.1,38.1-39.4,37.6c-20.6-0.5-37.1-17-37.6-37.6  c0-0.3,0-0.6,0-0.9c-0.1-21.2,17-38.6,38.3-38.7c21.2-0.1,38.6,17,38.7,38.3c0,0.1,0,0.3,0,0.4C449.3,406,449.3,406.3,449.3,406.7z   M495.9,399.8H464c-3.6-29.4-30.3-50.3-59.6-46.7c-24.5,3-43.7,22.2-46.7,46.7h-14.9v-80.9h117.3c15.8,0,35.8,21.6,35.8,45.7V399.8z  "></path>
<path class="st0" d="M244,147l-81-46.7c-2.4-1.3-5.2-1.3-7.6,0L74.7,147c-2.3,1.4-3.7,3.9-3.6,6.5v93.4c-0.1,2.7,1.3,5.2,3.6,6.5  l80.7,46.7c1.1,0.7,2.4,1,3.7,1c1.3,0,2.6-0.3,3.7-1l81.1-46.7c2.4-1.3,3.9-3.8,4-6.5v-93.4C247.9,150.8,246.4,148.3,244,147z   M159.1,115.6l24.5,14.2l-65.8,38l-24.5-14.2L159.1,115.6z M152,280.5l-65.8-38v-75.9l65.8,38L152,280.5z M159.1,191.5L133,176.4  l65.8-38l26.1,15.1L159.1,191.5z M232.9,242.5l-65.8,38v-75.9l65.8-38V242.5z"></path>
</svg>