<?xml version="1.0"?>
<svg xmlns="http://www.w3.org/2000/svg" version="1.1" width="24" height="24" x="0" y="0" viewBox="0 0 512 512" style="enable-background:new 0 0 512 512" xml:space="preserve" class=""><g><g xmlns="http://www.w3.org/2000/svg"><path d="m221.344 182.459h69.312c6.845 0 13.088-3.75 16.292-9.787 8.744-16.476 8.744-36.147 0-52.623-3.204-6.037-9.447-9.787-16.292-9.787h-69.312c-6.844 0-13.087 3.75-16.292 9.787-8.745 16.475-8.745 36.148 0 52.624 3.205 6.036 9.448 9.786 16.292 9.786zm-3.043-55.378c.596-1.122 1.762-1.819 3.042-1.819h69.312c1.281 0 2.446.697 3.042 1.819 6.407 12.072 6.407 26.487 0 38.559-.596 1.122-1.761 1.819-3.042 1.819h-69.312c-1.281 0-2.447-.697-3.042-1.819-6.407-12.073-6.407-26.487 0-38.559z" fill="#e5e5e5" data-original="#000000" style=""/><path d="m448.394 239.039h-14.492c-13.949 0-25.298 11.349-25.298 25.298 0 12.837 9.614 23.464 22.019 25.078l-11.601 97.622c-.894 7.541-5.698 13.75-12.229 16.738 3.038-7.004 3.315-14.775.749-22.008-2.039-5.748-5.688-10.629-10.5-14.159 14.497-36.578-2.496-70.488-16.317-98.037-8.174-16.293-15.895-31.683-15.895-44.5 0-9.92 3.054-18.884 6.59-29.263 4.584-13.457 9.78-28.708 9.78-50.037 0-37.763-19.803-56.397-34.262-70.004-4.396-4.137-8.548-8.044-11.509-11.857-1.944-2.511-6.294-9.84-13.578-30.708-6.924-19.86-25.752-33.202-46.851-33.202h-38c-21.098 0-39.927 13.342-46.851 33.198-7.284 20.869-11.634 28.198-13.575 30.705-2.918 3.762-6.981 7.595-10.91 11.301-3.013 2.842-3.151 7.589-.309 10.602 2.842 3.014 7.589 3.152 10.602.309 4.143-3.908 8.838-8.337 12.474-13.024 4.511-5.826 9.706-17.258 15.881-34.952 4.826-13.84 17.963-23.139 32.688-23.139h38c14.726 0 27.861 9.299 32.688 23.142 6.176 17.693 11.371 29.125 15.888 34.958 3.684 4.745 8.249 9.041 13.083 13.589 13.847 13.031 29.541 27.8 29.541 59.081 0 18.844-4.564 32.242-8.979 45.199-3.639 10.68-7.075 20.796-7.363 32.522-.089.086-.182.165-.268.256l-16.863 17.833c-11.104 11.757-14.505 29.124-8.665 44.239 1.104 2.865 2.262 5.781 3.437 8.745 11.378 28.682 24.215 61.06 7.885 94.457h-156.301c-17.874-33.218-5.854-66.218 4.804-95.453 1.089-2.988 2.161-5.928 3.183-8.815 5.41-15.286 1.521-32.548-9.906-43.974l-15.016-15.025c.003-.228.022-.456.022-.684 0-26.665-16.37-44.014-16.37-79.3 0-13.371 2.825-24.772 8.638-34.854 2.069-3.588.837-8.174-2.752-10.243-3.588-2.068-8.174-.836-10.243 2.752-7.162 12.422-10.643 26.274-10.643 42.346 0 21.329 5.196 36.58 9.78 50.036 10.06 29.529 9.843 35.596-9.305 73.764-13.82 27.549-30.814 61.459-16.317 98.037-4.811 3.531-8.46 8.411-10.499 14.16-2.566 7.233-2.289 15.004.749 22.008-6.531-2.987-11.336-9.198-12.231-16.74l-11.599-97.621c12.404-1.614 22.018-12.24 22.018-25.078 0-13.949-11.348-25.298-25.297-25.298h-14.493c-13.949 0-25.297 11.349-25.297 25.298s11.348 25.297 25.297 25.297h2.693l11.783 99.169c2.127 17.936 17.172 31.511 35.151 31.88l1.187 2.492c10.682 22.426 33.635 36.917 58.475 36.917h49.651v38.42c0 7.438 6.051 13.488 13.489 13.488h39.931c7.438 0 13.488-6.051 13.488-13.488v-38.42h45.007c4.143 0 7.5-3.358 7.5-7.5s-3.357-7.5-7.5-7.5h-161.566c-19.087 0-36.725-11.135-44.933-28.367l-8.769-18.41c-1.733-3.639-1.945-7.734-.597-11.532s4.094-6.844 7.732-8.576c6.575-3.131 14.443-1.119 18.709 4.781l6.163 8.524c5.421 7.498 14.04 12.091 23.246 12.471.117.004 162.502.3 166.832-.385 7.77-1.301 14.839-5.61 19.523-12.087l6.161-8.523c4.268-5.9 12.137-7.913 18.71-4.782 7.528 3.583 10.722 12.579 7.135 20.107l-8.77 18.411c-4.283 8.994-11.087 16.422-19.674 21.481-3.569 2.103-4.758 6.7-2.655 10.269 2.104 3.57 6.702 4.757 10.269 2.655 11.175-6.583 20.028-16.25 25.604-27.955l1.187-2.493c17.979-.369 33.023-13.944 35.15-31.878l11.784-99.17h2.693c13.949 0 25.298-11.348 25.298-25.297s-11.35-25.297-25.299-25.297zm-395.085 25.298c0-5.678 4.619-10.298 10.297-10.298h14.493c5.678 0 10.297 4.62 10.297 10.298s-4.619 10.297-10.297 10.297h-14.493c-5.678 0-10.297-4.619-10.297-10.297zm221.145 232.663h-36.908v-36.908h36.908zm-145.588-135c-11.976-30.273 2.134-58.427 15.817-85.703 5.609-11.181 11.023-21.975 14.304-32.487l7.57 7.574c7.364 7.364 9.866 18.497 6.373 28.365-1.007 2.845-2.062 5.74-3.135 8.683-9.124 25.029-20 54.876-12.263 86.237l-.339-.468c-6.624-9.163-17.602-13.621-28.327-12.201zm227.843 9.837c5.493-30.421-5.769-58.863-15.267-82.804-1.157-2.918-2.297-5.79-3.387-8.615-3.77-9.758-1.581-20.959 5.573-28.535l8.97-9.486c3.224 10.958 8.857 22.217 14.718 33.9 13.683 27.277 27.793 55.43 15.817 85.703-9.754-1.291-19.715 2.285-26.424 9.837zm91.685-97.203h-14.492c-5.679 0-10.298-4.62-10.298-10.297 0-5.678 4.619-10.298 10.298-10.298h14.492c5.679 0 10.298 4.62 10.298 10.298-.001 5.678-4.62 10.297-10.298 10.297z" fill="#e5e5e5" data-original="#000000" style=""/></g></g></svg>
