<?xml version="1.0"?>
<svg xmlns="http://www.w3.org/2000/svg" version="1.1" width="24" height="24" x="0" y="0" viewBox="0 0 512 512" style="enable-background:new 0 0 512 512" xml:space="preserve" class=""><g><path xmlns="http://www.w3.org/2000/svg" d="M64,184V392H56a8.00021,8.00021,0,0,0-7.51855,5.26611l-32,88A8.00016,8.00016,0,0,0,24,496H216V480H157.60358l-26.18177-72H224V392H160V187.314L171.31354,176h185.373L368,187.314V304h16V184a7.99877,7.99877,0,0,0-2.34326-5.65674L371.314,168l10.34278-10.34326A7.99877,7.99877,0,0,0,384,152V24a7.99977,7.99977,0,0,0-8-8H72a7.99977,7.99977,0,0,0-8,8V152a7.99877,7.99877,0,0,0,2.34326,5.65674L76.686,168,66.34326,178.34326A7.99877,7.99877,0,0,0,64,184ZM160,32H368V148.686L356.68652,160h-185.373L160,148.686ZM146.34326,178.34326A7.99877,7.99877,0,0,0,144,184V392H120V187.314L131.31354,176H148.6864ZM80,32h64V152a7.99877,7.99877,0,0,0,2.34326,5.65674L148.6864,160H131.31354L120,148.686V80H104v72a7.99877,7.99877,0,0,0,2.34326,5.65674L108.6864,160H91.31354L80,148.686Zm0,155.314L91.31354,176H108.6864l-2.34314,2.34326A7.99877,7.99877,0,0,0,104,184V392H80ZM114.39642,408l26.18177,72H35.42139l26.18213-72Z" fill="#e5e5e5" data-original="#000000" style="" class=""/><rect xmlns="http://www.w3.org/2000/svg" x="104" y="48" width="16" height="16" fill="#e5e5e5" data-original="#000000" style="" class=""/><rect xmlns="http://www.w3.org/2000/svg" x="300" y="352" width="16" height="16" fill="#e5e5e5" data-original="#000000" style="" class=""/><rect xmlns="http://www.w3.org/2000/svg" x="300" y="392" width="16" height="16" fill="#e5e5e5" data-original="#000000" style="" class=""/><rect xmlns="http://www.w3.org/2000/svg" x="280" y="372" width="16" height="16" fill="#e5e5e5" data-original="#000000" style="" class=""/><rect xmlns="http://www.w3.org/2000/svg" x="320" y="372" width="16" height="16" fill="#e5e5e5" data-original="#000000" style="" class=""/><path xmlns="http://www.w3.org/2000/svg" d="M469.91406,357.12793A39.30013,39.30013,0,0,0,437.11133,328.334l-5.95606-11.91162A7.99924,7.99924,0,0,0,424,312H392a7.99924,7.99924,0,0,0-7.15527,4.42236L379.05566,328H340.94434l-5.78907-11.57764A7.99924,7.99924,0,0,0,328,312H296a7.99924,7.99924,0,0,0-7.15527,4.42236L282.88867,328.334a39.30013,39.30013,0,0,0-32.80273,28.79395l-24.37549,91.40918A50.70348,50.70348,0,0,0,224,461.59082a34.40928,34.40928,0,0,0,62.40918,20L316.11682,440H344a7.99943,7.99943,0,0,0,6.65625-3.5625L360,422.42236l9.34375,14.01514A7.99943,7.99943,0,0,0,376,440h27.88306l29.70776,41.59131A34.40951,34.40951,0,0,0,496,461.59082a50.71,50.71,0,0,0-1.71045-13.0542ZM461.59082,480a18.44636,18.44636,0,0,1-14.98047-7.709L423.54541,440H440V424H380.28125l-13.625-20.4375a7.99959,7.99959,0,0,0-13.3125,0L339.71875,424H280v16h16.45459l-23.06494,32.29053A18.40919,18.40919,0,0,1,240,461.59082a34.673,34.673,0,0,1,1.17041-8.93164L265.5459,361.251A23.26739,23.26739,0,0,1,288,344a7.99924,7.99924,0,0,0,7.15527-4.42236L300.94434,328h22.11132l5.78907,11.57764A7.99924,7.99924,0,0,0,336,344h48a7.99924,7.99924,0,0,0,7.15527-4.42236L396.94434,328h22.11132l5.78907,11.57764A7.99924,7.99924,0,0,0,432,344a23.26739,23.26739,0,0,1,22.4541,17.251l24.37549,91.4082A34.673,34.673,0,0,1,480,461.59082,18.43,18.43,0,0,1,461.59082,480Z" fill="#e5e5e5" data-original="#000000" style="" class=""/><circle xmlns="http://www.w3.org/2000/svg" cx="392" cy="380" r="8" fill="#e5e5e5" data-original="#000000" style="" class=""/><circle xmlns="http://www.w3.org/2000/svg" cx="432" cy="380" r="8" fill="#e5e5e5" data-original="#000000" style="" class=""/><circle xmlns="http://www.w3.org/2000/svg" cx="412" cy="400" r="8" fill="#e5e5e5" data-original="#000000" style="" class=""/><circle xmlns="http://www.w3.org/2000/svg" cx="412" cy="360" r="8" fill="#e5e5e5" data-original="#000000" style="" class=""/><path xmlns="http://www.w3.org/2000/svg" d="M304,144h40a7.99977,7.99977,0,0,0,8-8V104a7.99977,7.99977,0,0,0-8-8H304a7.99977,7.99977,0,0,0-8,8v32A7.99977,7.99977,0,0,0,304,144Zm8-32h24v16H312Z" fill="#e5e5e5" data-original="#000000" style="" class=""/></g></svg>
