<?xml version="1.0"?>
<svg xmlns="http://www.w3.org/2000/svg"  version="1.1" width="24" height="24" x="0" y="0" viewBox="0 0 510.548 510.548" style="enable-background:new 0 0 512 512" xml:space="preserve" class=""><g><g xmlns="http://www.w3.org/2000/svg"><g><path d="m37.029 335.527c-1.715 0-3.105 1.39-3.105 3.104s1.39 3.104 3.105 3.104 3.104-1.39 3.104-3.104-1.39-3.104-3.104-3.104z" fill="#e5e5e5" data-original="#000000" style="" class=""/><path d="m37.029 355.542c-1.715 0-3.105 1.39-3.105 3.104s1.39 3.104 3.105 3.104 3.104-1.39 3.104-3.104-1.39-3.104-3.104-3.104z" fill="#e5e5e5" data-original="#000000" style="" class=""/><circle cx="17.014" cy="318.616" r="3.105" fill="#e5e5e5" data-original="#000000" style="" class=""/><path d="m27.398 325.142c-1.715 0-3.105 1.391-3.105 3.105s1.39 3.104 3.105 3.104 3.105-1.39 3.105-3.104c0-1.715-1.39-3.105-3.105-3.105z" fill="#e5e5e5" data-original="#000000" style="" class=""/><circle cx="17.014" cy="338.631" r="3.105" fill="#e5e5e5" data-original="#000000" style="" class=""/><path d="m27.398 345.157c-1.715 0-3.105 1.39-3.105 3.104s1.39 3.104 3.105 3.104 3.105-1.39 3.105-3.104-1.39-3.104-3.105-3.104z" fill="#e5e5e5" data-original="#000000" style="" class=""/><path d="m17.014 355.542c-1.715 0-3.105 1.39-3.105 3.104s1.39 3.104 3.105 3.104 3.105-1.39 3.105-3.104c-.001-1.714-1.391-3.104-3.105-3.104z" fill="#e5e5e5" data-original="#000000" style="" class=""/><path d="m27.398 365.172c-1.715 0-3.105 1.391-3.105 3.105s1.39 3.104 3.105 3.104 3.105-1.39 3.105-3.104-1.39-3.105-3.105-3.105z" fill="#e5e5e5" data-original="#000000" style="" class=""/><path d="m497.378 318.276c1.715 0 3.105-1.39 3.105-3.105s-1.39-3.104-3.105-3.104-3.105 1.39-3.105 3.104c0 1.715 1.39 3.105 3.105 3.105z" fill="#e5e5e5" data-original="#000000" style="" class=""/><path d="m497.378 338.291c1.715 0 3.105-1.39 3.105-3.105s-1.39-3.105-3.105-3.105-3.105 1.39-3.105 3.105 1.39 3.105 3.105 3.105z" fill="#e5e5e5" data-original="#000000" style="" class=""/><path d="m487.747 321.697c-1.715 0-3.105 1.39-3.105 3.104 0 1.715 1.39 3.104 3.105 3.104s3.105-1.39 3.105-3.104c0-1.713-1.39-3.104-3.105-3.104z" fill="#e5e5e5" data-original="#000000" style="" class=""/><path d="m477.363 332.082c-1.715 0-3.104 1.39-3.104 3.105s1.39 3.105 3.104 3.105 3.105-1.39 3.105-3.105c-.001-1.716-1.391-3.105-3.105-3.105z" fill="#e5e5e5" data-original="#000000" style="" class=""/><path d="m487.747 341.713c-1.715 0-3.105 1.39-3.105 3.104s1.39 3.104 3.105 3.104 3.105-1.39 3.105-3.104-1.39-3.104-3.105-3.104z" fill="#e5e5e5" data-original="#000000" style="" class=""/><path d="m477.363 352.097c-1.715 0-3.104 1.39-3.104 3.104 0 1.715 1.39 3.105 3.104 3.105s3.105-1.39 3.105-3.105c-.001-1.714-1.391-3.104-3.105-3.104z" fill="#e5e5e5" data-original="#000000" style="" class=""/><path d="m487.747 361.728c-1.715 0-3.105 1.39-3.105 3.105s1.39 3.104 3.105 3.104 3.105-1.39 3.105-3.104c0-1.715-1.39-3.105-3.105-3.105z" fill="#e5e5e5" data-original="#000000" style="" class=""/><path d="m466.254 230.415h-4.064c.525-6.055.798-12.143.798-18.227 0-114.864-93.449-208.313-208.314-208.313s-208.314 93.449-208.314 208.313c0 6.082.265 12.172.79 18.227h-2.858c-24.422 0-44.292 19.87-44.292 44.293v65.991c0 24.423 19.87 44.292 44.293 44.292h6.71c3.891 6.078 9.099 11.23 15.208 15.075v31.42c0 31.077 25.283 56.36 56.36 56.36h78.267c4.29 10.036 14.054 17.128 25.691 17.528l37.229 1.28c.345.012.688.018 1.031.018 7.557 0 14.675-2.873 20.14-8.153 5.713-5.52 8.859-12.935 8.859-20.878v-15.071c0-7.944-3.146-15.358-8.859-20.878s-13.23-8.406-21.171-8.137l-37.229 1.281c-11.907.409-21.855 7.824-25.982 18.232h-74.457c-13.84 0-25.101-11.26-25.101-25.101v-21.268c22.628-4.204 39.82-24.079 39.82-47.907v-102.177c0-26.875-21.865-48.739-48.739-48.739-2.716 0-5.372.248-7.967.677.518-24.648 6.291-48.025 16.238-69.059.162.122.312.254.478.372 5.235 3.716 11.602 5.171 17.934 4.099 6.33-1.074 11.862-4.548 15.579-9.784 28.157-39.66 73.96-63.338 122.524-63.338 48.827 0 94.773 23.88 122.907 63.88 4.497 6.393 11.852 10.209 19.676 10.209 3.817 0 7.52-.904 10.88-2.62 9.122 20.239 14.406 42.564 14.926 66.043-2.213-.309-4.47-.48-6.767-.48-26.875 0-48.74 21.864-48.74 48.739v102.177c0 26.875 21.865 48.739 48.74 48.739 17.235 0 32.398-9 41.067-22.54h6.71c24.423 0 44.293-19.87 44.293-44.293v-65.991c-.001-24.421-19.871-44.291-44.294-44.291zm-419.402 146.537h-2.56c-16.562 0-30.556-11.168-34.872-26.366.648-.569 1.066-1.395 1.066-2.325 0-1.376-.902-2.531-2.143-2.938-.194-1.516-.305-3.057-.305-4.625v-9.421c1.399-.302 2.448-1.543 2.448-3.032s-1.049-2.73-2.448-3.032v-13.951c1.399-.302 2.448-1.543 2.448-3.032s-1.049-2.73-2.448-3.032v-30.491c0-19.99 16.263-36.253 36.254-36.253h2.56c-2.264 5.617-3.523 11.743-3.523 18.16v102.177c.001 6.419 1.259 12.545 3.523 18.161zm45.217 30.579c.295 0 .586-.017.88-.022v20.458c0 18.274 14.866 33.14 33.14 33.14h72.537c-.083.903-.13 1.817-.13 2.743v12.51c0 1.168.076 2.316.208 3.447h-76.133c-26.644 0-48.321-21.677-48.321-48.321v-27.345c5.523 2.18 11.53 3.39 17.819 3.39zm307.369-270.638c-5.211.001-10.108-2.54-13.1-6.794-29.637-42.138-78.042-67.294-129.483-67.294-51.163 0-99.417 24.943-129.079 66.724-2.473 3.484-6.155 5.796-10.368 6.51-4.21.715-8.451-.253-11.934-2.727-.51-.362-.984-.755-1.438-1.164 28.725-53.843 85.469-90.576 150.639-90.576 66.34 0 123.953 38.061 152.163 93.49-2.28 1.196-4.799 1.831-7.4 1.831zm55.164 87.084c-5.701-6.308-13.015-11.121-21.295-13.776-1.071-97.599-80.784-176.67-178.632-176.67-97.983 0-177.782 79.289-178.638 177.073-8.327 2.913-15.628 8.022-21.207 14.637-.28-4.343-.429-8.699-.429-13.052 0-110.431 89.842-200.273 200.274-200.273s200.274 89.842 200.274 200.273c0 3.931-.118 7.864-.347 11.788zm47.906 116.722c0 4.585-.864 8.968-2.424 13.01-.529-.957-1.536-1.612-2.706-1.612-1.715 0-3.105 1.39-3.105 3.104 0 1.715 1.39 3.105 3.105 3.105.201 0 .396-.022.585-.059-3.937 7.085-10.174 12.722-17.701 15.887-.44-1.179-1.568-2.022-2.9-2.022-1.715 0-3.104 1.39-3.104 3.105 0 .281.049.548.119.806-2.613.601-5.33.929-8.123.929h-2.56c1.199-2.976 2.107-6.098 2.705-9.327.405.194.854.311 1.333.311 1.715 0 3.105-1.39 3.105-3.104s-1.39-3.105-3.105-3.105c-.212 0-.418.022-.617.062.061-.992.103-1.99.103-2.998v-10.921c.168.028.338.052.514.052 1.715 0 3.105-1.39 3.105-3.104s-1.39-3.104-3.105-3.104c-.176 0-.346.024-.514.052v-13.91c.168.028.338.052.514.052 1.715 0 3.105-1.39 3.105-3.104 0-.748-.276-1.426-.717-1.962-.958.088-1.927.136-2.902.157v-66.382c0-6.417-1.259-12.543-3.523-18.16h2.56c19.99 0 36.254 16.263 36.254 36.253z" fill="#e5e5e5" data-original="#000000" style="" class=""/></g></g></g></svg>
