<?xml version="1.0"?>
<svg xmlns="http://www.w3.org/2000/svg" version="1.1" width="24" height="24" x="0" y="0" viewBox="0 0 204.232 204.232" style="enable-background:new 0 0 512 512" xml:space="preserve" class=""><g>
<path xmlns="http://www.w3.org/2000/svg" d="M4.595,181.71h195.021c2.538,0,4.595-2.057,4.595-4.595v-4.136c0.003-0.069,0.021-0.133,0.021-0.203  c0-0.75-0.18-1.458-0.499-2.083l-19.942-50.2V27.116c0-2.538-2.057-4.595-4.595-4.595H25.016c-2.538,0-4.595,2.057-4.595,4.595  v93.377L0.324,171.08c-0.09,0.226-0.153,0.457-0.206,0.69c-0.013,0.059-0.023,0.118-0.034,0.178c-0.05,0.268-0.081,0.539-0.082,0.81  c0,0.006-0.002,0.012-0.002,0.018v4.339C0,179.653,2.057,181.71,4.595,181.71z M82.343,166.881l4.204-13h31.117l4.204,13H82.343z   M33.93,34.244h136.352v80H33.93V34.244z" fill="#e5e5e5" data-original="#000000" style="" class=""/>
<g xmlns="http://www.w3.org/2000/svg">
</g>
<g xmlns="http://www.w3.org/2000/svg">
</g>
<g xmlns="http://www.w3.org/2000/svg">
</g>
<g xmlns="http://www.w3.org/2000/svg">
</g>
<g xmlns="http://www.w3.org/2000/svg">
</g>
<g xmlns="http://www.w3.org/2000/svg">
</g>
<g xmlns="http://www.w3.org/2000/svg">
</g>
<g xmlns="http://www.w3.org/2000/svg">
</g>
<g xmlns="http://www.w3.org/2000/svg">
</g>
<g xmlns="http://www.w3.org/2000/svg">
</g>
<g xmlns="http://www.w3.org/2000/svg">
</g>
<g xmlns="http://www.w3.org/2000/svg">
</g>
<g xmlns="http://www.w3.org/2000/svg">
</g>
<g xmlns="http://www.w3.org/2000/svg">
</g>
<g xmlns="http://www.w3.org/2000/svg">
</g>
</g></svg>
