<svg width="320" height="88.93164194827317" width="100" height="70" viewBox="0 0 320 88.93164194827317" class="css-1j8o68f"><defs id="SvgjsDefs1011"></defs><g id="SvgjsG1012" featurekey="symbolFeature-0" transform="matrix(1.1878458946852524,0,0,1.1878458946852524,-9.82943565357443,-15.83992844939493)" fill="#e5e5e5"><path xmlns="http://www.w3.org/2000/svg" d="M77.486,39.803c0.586-3.135,0.311-8.523-4.847-12.286c-1.596-1.163-4.16-2.285-7.121-2.285  c-2.379,0-5.013,0.724-7.606,2.733c-4.115-8.135-10.738-10.63-16.497-10.63c-3.967,0-7.523,1.184-9.57,2.522  c-4.81,3.145-10.341,9.182-8.238,19.855c-6.496,1.791-11.332,7.622-11.332,14.674c0,7.479,5.407,13.68,12.523,14.942V48.914h25.457  l-1.023,0c-0.35-2.309-0.896-4.41-1.738-6.427c-0.137,0.029-0.279,0.046-0.425,0.046c-1.119,0-2.025-0.906-2.025-2.024  c0-0.589,0.255-1.114,0.656-1.484c-0.762-1.219-1.666-2.433-2.732-3.67c-0.485,0.321-1.064,0.51-1.689,0.51  c-1.695,0-3.068-1.374-3.068-3.068c0-1.694,1.374-3.068,3.068-3.068c1.694,0,3.068,1.374,3.068,3.068c0,0.707-0.249,1.35-0.65,1.868  c1.136,1.311,2.095,2.594,2.899,3.881c0.152-0.037,0.309-0.061,0.472-0.061c1.118,0,2.025,0.907,2.025,2.025  c0,0.604-0.271,1.141-0.69,1.512c0.911,2.161,1.491,4.409,1.852,6.894h25.742v20.406c7.085-1.286,12.463-7.474,12.463-14.933  C88.461,47.463,84.235,41.912,77.486,39.803z"></path><path xmlns="http://www.w3.org/2000/svg" d="M81.69,37.171c-0.056-3.597-1.221-8.893-6.693-12.885c-2.663-1.941-6.117-3.054-9.479-3.054  c-2.132,0-4.232,0.442-6.223,1.297c-5.647-7.905-13.419-9.194-17.88-9.194c-4.324,0-8.72,1.187-11.759,3.174  c-7.431,4.858-11.06,12.086-10.434,20.596c-6.586,3.187-10.947,9.872-10.947,17.281c0,9.675,7.203,17.678,16.523,18.982v-2.021  c-8.214-1.288-14.523-8.393-14.523-16.962c0-7.099,4.477-13.458,11.084-16.033c-1.077-8.364,2.216-15.479,9.391-20.17  c2.105-1.377,6.012-2.848,10.665-2.848c4.299,0,11.982,1.323,17.185,9.765c2.169-1.241,4.488-1.869,6.918-1.868  c4.186,0,7.198,1.867,8.3,2.669c5.483,4,6.038,9.495,5.843,12.558c6.705,2.723,10.8,8.692,10.8,15.927  c0,8.548-6.279,15.639-14.463,16.953v2.021c9.291-1.331,16.463-9.32,16.463-18.974C92.461,46.771,88.409,40.416,81.69,37.171z"></path><path xmlns="http://www.w3.org/2000/svg" d="M86.242,85.336c0-0.046-0.036-0.083-0.083-0.083H79.12c0.003-0.003,0.003-0.006,0.003-0.01H56.295  c-0.093,0.47-0.509,0.823-1.002,0.823h-9.848c-0.496,0-0.909-0.354-1.002-0.823h-22.83c0,0.004,0.001,0.007,0.003,0.01h-7.04  c-0.044,0-0.083,0.037-0.083,0.083v1.025c0,0.046,0.018,0.089,0.048,0.118l0,0c0,0,0.815,1.724,3.297,1.724h65.057  c2.479,0,3.296-1.724,3.296-1.724l0,0c0.03-0.029,0.05-0.072,0.05-0.118V85.336L86.242,85.336z"></path><path xmlns="http://www.w3.org/2000/svg" d="M77.434,45.545H49.583c0.279,1.082,0.503,2.197,0.673,3.369h25.727v31.667v0.291H24.799v-0.291V48.914h25.457l-1.023,0  c-0.178-1.171-0.407-2.288-0.698-3.368H23.305c-1.051,0-1.915,0.863-1.915,1.915v36.385h57.955V47.459  C79.345,46.406,78.481,45.545,77.434,45.545z"></path><path xmlns="http://www.w3.org/2000/svg" d="M49.946,64.29h0.846c0-6.279-0.012-11.16-0.626-15.376h-0.866C49.936,53.113,49.946,57.987,49.946,64.29z"></path><circle xmlns="http://www.w3.org/2000/svg" cx="50.369" cy="64.29" r="3.069"></circle><circle xmlns="http://www.w3.org/2000/svg" cx="50.262" cy="54.449" r="2.025"></circle></g><g id="SvgjsG1013" featurekey="nameFeature-0" transform="matrix(1.2761612968490679,0,0,1.2761612968490679,117.34558459991732,6.340482271978372)" fill="#e5e5e5"><path d="M16.4 10 l1.36 0 l0 29.56 c0 0.24 -0.2 0.44 -0.44 0.44 l-10.28 0 c-2.76 0 -4.96 -2.24 -4.96 -5 l0 -10 c0 -2.76 2.2 -5 4.96 -5 l7.8 0 c0.56 0 1.08 0.32 1.12 0.76 l0 -10.32 c0 -0.24 0.2 -0.44 0.44 -0.44 z M7.04 38.32 l8.92 0 l0 -15.96 c-0.04 -0.4 -0.32 -0.68 -0.68 -0.72 l-8.24 0 c-1.76 0 -3.16 1.44 -3.16 3.2 l0 10.32 c0 1.76 1.4 3.16 3.16 3.16 z M22.52 39.56 l0 -19.56 l1.36 0 c0.24 0 0.44 0.16 0.44 0.4 l0 19.6 l-1.36 0 c-0.24 0 -0.44 -0.2 -0.44 -0.44 z M22.52 13 l0 -1.88 l1.4 0 c0.24 0 0.4 0.2 0.4 0.4 l0 1.88 l-1.4 0 c-0.24 0 -0.4 -0.16 -0.4 -0.4 z M44.44 19.96 c0.24 0 0.44 0.2 0.44 0.48 l0 24.28 c0 2.8 -2.2 5.04 -4.96 5.04 l-9.4 0 l0 -1.32 c0 -0.24 0.2 -0.44 0.4 -0.44 l9 0 c1.76 0 3.16 -1.32 3.16 -3.08 l0 -5.52 c-0.16 0.36 -0.56 0.56 -1.08 0.56 l-7.36 0.04 c-2.76 0 -4.96 -2.28 -4.96 -5.04 l0 -9.96 c0 -2.76 2.2 -5.04 4.96 -5.04 l9.8 0 z M34.64 38.32 l7.72 0 c0.4 0 0.72 -0.32 0.72 -0.72 l0 -15.96 l-8.44 0 c-1.76 0 -3.16 1.44 -3.16 3.2 l0 10.28 c0 1.76 1.4 3.2 3.16 3.2 z M49.56 39.56 l0 -19.56 l1.36 0 c0.24 0 0.44 0.16 0.44 0.4 l0 19.6 l-1.36 0 c-0.24 0 -0.44 -0.2 -0.44 -0.44 z M49.56 13 l0 -1.88 l1.4 0 c0.24 0 0.4 0.2 0.4 0.4 l0 1.88 l-1.4 0 c-0.24 0 -0.4 -0.16 -0.4 -0.4 z M65.48 38.32 c0.2 0 0.4 0.2 0.4 0.44 l0 1.24 l-3.96 0 c-2.76 0 -4.96 -2.24 -4.96 -5.04 l0 -25.04 l1.36 0 c0.24 0 0.44 0.2 0.44 0.44 l0 10.44 c0.04 -0.44 0.56 -0.76 1.12 -0.76 l4.88 0 l0 1.2 c0 0.24 -0.2 0.44 -0.44 0.44 l-5.56 0 l0 13.48 c0 1.72 1.4 3.16 3.16 3.16 l3.56 0 z M79.2 19.96 c2.76 0 4.96 2.28 4.96 5.04 l0 14.56 c0 0.24 -0.2 0.44 -0.44 0.44 l-10.04 0 c-2.76 0 -4.96 -2.24 -4.96 -5 l0 -2.08 c0 -2.8 2.2 -5.04 4.96 -5.04 l8.24 0 c0.24 0 0.4 -0.16 0.44 -0.44 l0 -2.6 c0 -1.76 -1.4 -3.2 -3.16 -3.2 l-8.36 0 c-0.2 0 -0.4 -0.2 -0.4 -0.44 l0 -1.24 l8.76 0 z M73.67999999999999 38.24 l8.68 0 l0 -8.84 c-0.08 0.08 -0.2 0.16 -0.32 0.16 l-8.36 0 c-1.76 0 -3.16 1.44 -3.16 3.2 l0 2.32 c0 1.76 1.4 3.16 3.16 3.16 z M88.92 39.56 l0 -27.92 l1.36 0 c0.24 0 0.44 0.2 0.44 0.44 l0 27.88 l-1.36 0 c-0.24 0 -0.44 -0.16 -0.44 -0.4 z M114.67999999999999 40 c-2.76 0 -4.96 -1.8 -4.96 -4.84 l0 -10.36 c0 -3 2.12 -4.8 4.84 -4.8 l6.32 0 c2.72 0 4.84 1.8 4.84 4.8 l0 5.44 c0 0.28 -0.2 0.48 -0.44 0.48 l-12.84 0 c-0.36 0 -0.68 -0.2 -0.88 -0.48 l-0.04 0 l0 4.88 c0 1.76 1.4 3.16 3.16 3.16 l10.28 0 c0.24 0 0.44 0.2 0.44 0.44 l0 1.28 l-10.72 0 z M120.88 21.64 l-6.32 0 c-1.72 0 -3.04 1.44 -3.04 3.2 l0 3.76 c0 0.24 0.16 0.4 0.44 0.44 l11.96 0 l0 -4.2 c0 -1.76 -1.32 -3.2 -3.04 -3.2 z M130.6 20 l1.8 0 l0 1.32 s0.8 -1.32 3.52 -1.32 l4.56 0 l0 1.24 c0 0.24 -0.2 0.4 -0.44 0.4 l-4.92 0 c-2.8 0 -2.72 2.88 -2.72 2.88 l0 15.48 l-1.8 0 l0 -20 z M153.84 19.96 c2.76 0 4.96 2.28 4.96 5.04 l0 14.56 c0 0.24 -0.2 0.44 -0.44 0.44 l-10.04 0 c-2.76 0 -4.96 -2.24 -4.96 -5 l0 -2.08 c0 -2.8 2.2 -5.04 4.96 -5.04 l8.24 0 c0.24 0 0.4 -0.16 0.44 -0.44 l0 -2.6 c0 -1.76 -1.4 -3.2 -3.16 -3.2 l-8.36 0 c-0.2 0 -0.4 -0.2 -0.4 -0.44 l0 -1.24 l8.76 0 z M148.32 38.24 l8.68 0 l0 -8.84 c-0.08 0.08 -0.2 0.16 -0.32 0.16 l-8.36 0 c-1.76 0 -3.16 1.44 -3.16 3.2 l0 2.32 c0 1.76 1.4 3.16 3.16 3.16 z"></path></g></svg>