<?xml version="1.0"?>
<svg xmlns="http://www.w3.org/2000/svg" version="1.1" width="24" height="24" x="0" y="0" viewBox="0 0 512 512" style="enable-background:new 0 0 512 512" xml:space="preserve" class=""><g><g xmlns="http://www.w3.org/2000/svg" id="XMLID_1_"><path id="XMLID_46_" d="m355.255 229.5h101.62v-8.95c0-74.64-56.85-136.24-129.54-143.77v123.8c13.26 4.7 23.68 15.45 27.92 28.92z" fill="#e5e5e5" data-original="#000000" style="" class=""/><path id="XMLID_76_" d="m357.335 286c0 24.81-20.19 45-45 45-24.82 0-45-20.19-45-45v-29h-99.55v110.45c0 79.71 64.84 144.55 144.54 144.55 79.71 0 144.55-64.84 144.55-144.55v-107.95h-99.54z" fill="#e5e5e5" data-original="#000000" style="" class=""/><path id="XMLID_93_" d="m312.335 228c-8.28 0-15 6.73-15 15v43c0 8.27 6.72 15 15 15 8.27 0 15-6.73 15-15v-43c0-8.27-6.73-15-15-15z" fill="#e5e5e5" data-original="#000000" style="" class=""/><path id="XMLID_94_" d="m297.335 200.58v-123.81c-1.39.14-2.78.31-4.16.49-70.68 9.4-125.39 70.07-125.39 143.29v6.45h102.49c4.7-12.29 14.63-22.01 27.06-26.42z" fill="#e5e5e5" data-original="#000000" style="" class=""/><path id="XMLID_105_" d="m324.265 76.49c1.03.08 2.05.18 3.07.29-11.07-43.9-49.7-76.78-96.98-76.78-55.82 0-101.23 45.41-101.23 101.23 0 23.03-18.74 41.77-41.77 41.77h-32.23v30h32.23c39.57 0 71.77-32.2 71.77-71.77 0-39.28 31.95-71.23 71.23-71.23 30.87 0 57.12 19.25 66.98 46.77 4.93-.51 9.93-.77 14.99-.77 4.02 0 8 .16 11.94.49z" fill="#e5e5e5" data-original="#000000" style="" class=""/></g></g></svg>
