<?xml version="1.0"?>
<svg xmlns="http://www.w3.org/2000/svg" version="1.1" width="512" height="512" x="0" y="0" viewBox="0 0 459 459" style="enable-background:new 0 0 512 512" xml:space="preserve" class=""><g>
<g xmlns="http://www.w3.org/2000/svg">
	<g>
		<path d="M229.5,0C102.751,0,0,102.751,0,229.5S102.751,459,229.5,459C356.25,459,459,356.249,459,229.5S356.25,0,229.5,0z     M351.738,246.077c-0.063,0.071-0.122,0.144-0.185,0.214c-0.659,0.723,4.184-4.144-85.051,85.091    c-9.757,9.757-25.586,9.77-35.356,0c-9.763-9.763-9.763-25.592,0-35.355l41.527-41.527h-146.7c-13.808,0-25-11.193-25-25    s11.192-25,25-25h146.701l-41.527-41.527c-9.763-9.763-9.763-25.592,0-35.355c9.764-9.763,25.592-9.763,35.356,0    c89.798,89.798,84.708,84.629,85.852,86.022C360.134,223.129,359.904,236.87,351.738,246.077z" fill="#ce6a3c" data-original="#000000" style="" class=""/>
	</g>
</g>
<g xmlns="http://www.w3.org/2000/svg">
</g>
<g xmlns="http://www.w3.org/2000/svg">
</g>
<g xmlns="http://www.w3.org/2000/svg">
</g>
<g xmlns="http://www.w3.org/2000/svg">
</g>
<g xmlns="http://www.w3.org/2000/svg">
</g>
<g xmlns="http://www.w3.org/2000/svg">
</g>
<g xmlns="http://www.w3.org/2000/svg">
</g>
<g xmlns="http://www.w3.org/2000/svg">
</g>
<g xmlns="http://www.w3.org/2000/svg">
</g>
<g xmlns="http://www.w3.org/2000/svg">
</g>
<g xmlns="http://www.w3.org/2000/svg">
</g>
<g xmlns="http://www.w3.org/2000/svg">
</g>
<g xmlns="http://www.w3.org/2000/svg">
</g>
<g xmlns="http://www.w3.org/2000/svg">
</g>
<g xmlns="http://www.w3.org/2000/svg">
</g>
</g></svg>
