<svg xmlns="http://www.w3.org/2000/svg" xmlns:xlink="http://www.w3.org/1999/xlink" id="Layer_1" x="0px" y="0px" viewBox="0 0 511 511" style="enable-background:new 0 0 511 511;" xml:space="preserve">
<style type="text/css">
	.st0{fill:#393D46;}
</style>
<path class="st0" d="M277.8,249.7c-2.9-3-7.6-3.2-10.7-0.3c-0.6,0.6-1.1,1.2-1.5,1.9l-18.2,33.9c-2,3.7-0.6,8.2,3.1,10.2  c1.1,0.6,2.3,0.9,3.6,0.9c2.8,0,5.4-1.5,6.8-4l4.2-7.5v64.8c0,4.2,3.4,7.5,7.5,7.5c4.2,0,7.5-3.4,7.5-7.5v-75.8l6.1,6.6  c2.8,3,7.5,3.2,10.6,0.3c0,0,0,0,0,0c3-2.9,3.1-7.6,0.3-10.7c0,0,0,0,0,0L277.8,249.7z"></path>
<path class="st0" d="M287.8,360.5l-34.4,19.8c-3.6,2.1-4.8,6.7-2.8,10.3s6.7,4.8,10.3,2.8l34.4-19.8c3.6-2.1,4.8-6.7,2.8-10.3  C296.1,359.7,291.4,358.4,287.8,360.5z"></path>
<path class="st0" d="M504.4,317.2l-75.6-37.1V125.7c0-2.7-1.5-5.2-3.8-6.6L218.2-0.2c-2.3-1.3-5.2-1.3-7.5,0L3.9,119.1  C1.5,120.4,0,123,0,125.7v259.5c0,2.7,1.4,5.2,3.8,6.5l206.9,119.4c2.4,1.4,5.4,1.3,7.7-0.1l126.1-77.3c5.3,8.9,12.1,16.5,19.2,21.4  l53.3,36.3c2.6,1.7,5.9,1.7,8.5,0l53.2-36.3c16.8-11.4,29.8-36.3,29.8-56.6V324C508.6,321.1,507,318.5,504.4,317.2z M334.1,84.1  L142.4,194.8l-37.6-21.7L296.5,62.4L334.1,84.1z M134.7,207.7v138.2l-14.2-16c-2.2-2.4-5.7-3.2-8.7-2L97,334V186.2L134.7,207.7z   M214.4,15l67,38.7L89.6,164.4l-67-38.7L214.4,15z M206.9,491.6L15.1,380.9V138.8l66.8,38.7v167.8c0.1,4.2,3.6,7.6,7.8,7.5  c0.9,0,1.9-0.2,2.7-0.6l20.1-8.3l23.8,27c1.4,1.6,3.5,2.6,5.7,2.6c0.9,0,1.9-0.2,2.8-0.5c3-1.1,4.9-3.9,5-7.1V216.4l57.1,33.1V491.6  z M214.4,236.4l-57-32.9L349.2,92.8l56.9,32.9L214.4,236.4z M338.1,317.1c-2.6,1.3-4.2,3.9-4.1,6.8v74.8c0.1,7.3,1.5,14.6,4.1,21.5  l-116.1,71.1V249.5l191.8-110.7V280L338.1,317.1z M493.5,398.7c0,15.3-10.6,35.5-23.2,44.1l-49,33.4l-49-33.4  c-6.8-4.6-13.4-13.2-17.9-22.8c-3.2-6.7-5-13.9-5.2-21.3v-70.1l72.2-35.4l72.2,35.5V398.7z"></path>
<path class="st0" d="M392.9,379.7c-2.9-2.9-7.7-2.9-10.7,0c-2.9,2.9-2.9,7.7,0,10.7l22.5,22.5c2.9,2.9,7.7,2.9,10.7,0c0,0,0,0,0,0  l44.9-44.9c2.9-2.9,2.9-7.7,0-10.7s-7.7-2.9-10.7,0L410,396.8L392.9,379.7z"></path>
</svg>