<svg xmlns="http://www.w3.org/2000/svg" xmlns:xlink="http://www.w3.org/1999/xlink" id="Layer_1" x="0px" y="0px" viewBox="0 0 511 511" style="enable-background:new 0 0 511 511;" xml:space="preserve">
<style type="text/css">
	.st0{fill:#393D46;}
</style>
<title>Box 3</title>
<path class="st0" d="M474,125L259.3,1c-2.3-1.3-5.2-1.3-7.5,0L37,125c-2.3,1.3-3.8,3.8-3.8,6.5v248c0,2.7,1.4,5.2,3.8,6.5l214.8,124  c2.3,1.3,5.2,1.3,7.5,0L474,386c2.3-1.3,3.8-3.8,3.8-6.5v-248C477.8,128.8,476.3,126.3,474,125z M380.4,88.3L180.7,203.6L141,180.7  L340.7,65.4L380.4,88.3z M172.8,216.4v123l-15.2-17.3c-2.2-2.4-5.7-3.2-8.7-2l-15.8,6.5v-133L172.8,216.4z M255.5,16.2l70.2,40.5  L126,172l-70.2-40.5L255.5,16.2z M248,490.5L48.3,375.2V144.5l69.8,40.5v152.9c0.2,4.3,3.8,7.7,8.1,7.5c0.9,0,1.8-0.2,2.6-0.6  l21.1-8.7l24.8,28.2c2.8,3.1,7.5,3.4,10.6,0.7c1.6-1.4,2.5-3.5,2.6-5.6V225.1l60.1,34.7V490.5z M255.5,246.8l-59.7-34.5L395.5,97  l59.7,34.5L255.5,246.8z M462.7,375.2L263,490.5V259.8l199.7-115.3V375.2z"></path>
</svg>