<?xml version="1.0"?>
<svg xmlns="http://www.w3.org/2000/svg" version="1.1" width="512" height="512" x="0" y="0" viewBox="0 0 24 24" style="enable-background:new 0 0 512 512" xml:space="preserve" class=""><g><path xmlns="http://www.w3.org/2000/svg" d="m13.25 4h-5.5c-.41 0-.75.34-.75.75v9c0 .41.34.75.75.75h5.5c.41 0 .75-.34.75-.75v-9c0-.41-.34-.75-.75-.75z" fill="#ffb74d" data-original="#ffb74d" style="" class=""/><path xmlns="http://www.w3.org/2000/svg" d="m11.25 4v2.79c0 .41-.34.75-.75.75s-.75-.34-.75-.75v-2.79z" fill="#795548" data-original="#795548" style="" class=""/><path xmlns="http://www.w3.org/2000/svg" d="m9.75 4h-2c-.41 0-.75.34-.75.75v9c0 .41.34.75.75.75h2.75v-6.96c-.41 0-.75-.34-.75-.75z" fill="#de9f43" data-original="#de9f43" style="" class=""/><path xmlns="http://www.w3.org/2000/svg" d="m10.5 4h-.75v2.79c0 .41.34.75.75.75z" fill="#694a3f" data-original="#694a3f" style="" class=""/><path xmlns="http://www.w3.org/2000/svg" d="m7.75 7h-5c-.41 0-.75.34-.75.75v6c0 .41.34.75.75.75h5c.41 0 .75-.34.75-.75v-6c0-.41-.34-.75-.75-.75z" fill="#ffa726" data-original="#ffa726" style="" class=""/><path xmlns="http://www.w3.org/2000/svg" d="m6 7v2.89c0 .42-.34.75-.75.75s-.75-.33-.75-.75v-2.89z" fill="#795548" data-original="#795548" style="" class=""/><path xmlns="http://www.w3.org/2000/svg" d="m4.5 7h-1.75c-.41 0-.75.34-.75.75v6c0 .41.34.75.75.75h2.5v-3.86c-.41 0-.75-.33-.75-.75z" fill="#ffb74d" data-original="#de9121" style="" class=""/><path xmlns="http://www.w3.org/2000/svg" d="m5.25 7h-.75v2.89c0 .42.34.75.75.75z" fill="#694a3f" data-original="#694a3f" style="" class=""/><path xmlns="http://www.w3.org/2000/svg" d="m14.5 18.25v-5.25h-13.8c-.39 0-.7.34-.7.75v4.5c0 .41.31.75.7.75h14.55c-.41 0-.75-.34-.75-.75z" fill="#cfd8dc" data-original="#cfd8dc" style="" class=""/><path xmlns="http://www.w3.org/2000/svg" d="m7.5 13h-6.8c-.39 0-.7.34-.7.75v4.5c0 .41.31.75.7.75h6.8z" fill="#b4bcc0" data-original="#b4bcc0" style="" class=""/><path xmlns="http://www.w3.org/2000/svg" d="m4.75 21c-1.517 0-2.75-1.233-2.75-2.75s1.233-2.75 2.75-2.75c1.516 0 2.75 1.233 2.75 2.75s-1.233 2.75-2.75 2.75z" fill="#455a64" data-original="#455a64" style="" class=""/><path xmlns="http://www.w3.org/2000/svg" d="m4.75 15.5c-1.517 0-2.75 1.233-2.75 2.75s1.233 2.75 2.75 2.75z" fill="#3c4e57" data-original="#3c4e57" style="" class=""/><path xmlns="http://www.w3.org/2000/svg" d="m24 11.75v6.5c0 .413-.338.75-.75.75h-8.75v-11.25c0-.413.338-.75.75-.75h4c2.623 0 4.75 2.126 4.75 4.75z" fill="#78909c" data-original="#78909c" style="" class=""/><path xmlns="http://www.w3.org/2000/svg" d="m19 7h-3.75c-.412 0-.75.337-.75.75v11.25h4.5z" fill="#687d88" data-original="#687d88" style="" class=""/><path xmlns="http://www.w3.org/2000/svg" d="m19.25 21c-1.517 0-2.75-1.233-2.75-2.75s1.233-2.75 2.75-2.75 2.75 1.233 2.75 2.75-1.233 2.75-2.75 2.75z" fill="#455a64" data-original="#455a64" style="" class=""/><path xmlns="http://www.w3.org/2000/svg" d="m19.25 15.5c-1.517 0-2.75 1.233-2.75 2.75s1.233 2.75 2.75 2.75z" fill="#3c4e57" data-original="#3c4e57" style="" class=""/></g></svg>
