<svg width="19" height="19" viewBox="0 0 19 19" fill="none" xmlns="http://www.w3.org/2000/svg">
<path fill-rule="evenodd" clip-rule="evenodd" d="M12.2723 7.89605C12.2723 10.3432 10.2966 12.3121 7.87774 12.3121C5.45888 12.3121 3.48315 10.3432 3.48315 7.89605C3.48315 5.44891 5.45888 3.47998 7.87774 3.47998C10.2966 3.47998 12.2723 5.44891 12.2723 7.89605ZM11.8419 14.1575C10.6962 14.8886 9.33629 15.3121 7.87774 15.3121C3.79382 15.3121 0.483154 11.9918 0.483154 7.89605C0.483154 3.80027 3.79382 0.47998 7.87774 0.47998C11.9617 0.47998 15.2723 3.80027 15.2723 7.89605C15.2723 9.44237 14.8004 10.8782 13.9932 12.0665L18.7649 16.8714L16.651 19L11.8419 14.1575Z" fill="#676767" fill-opacity="0.32"/>
</svg>
