<svg width="1038" height="89" viewBox="0 0 1038 89" fill="none" xmlns="http://www.w3.org/2000/svg">
<path d="M55.7812 69.4219H24.9609L19.1016 87H0.410156L32.168 1.6875H48.457L80.3906 87H61.6992L55.7812 69.4219ZM29.707 55.1836H51.0352L40.3125 23.25L29.707 55.1836ZM100.359 87V1.6875H130.242C140.594 1.6875 148.445 3.67969 153.797 7.66406C159.148 11.6094 161.824 17.4102 161.824 25.0664C161.824 29.2461 160.75 32.9375 158.602 36.1406C156.453 39.3047 153.465 41.6289 149.637 43.1133C154.012 44.207 157.449 46.4141 159.949 49.7344C162.488 53.0547 163.758 57.1172 163.758 61.9219C163.758 70.125 161.141 76.3359 155.906 80.5547C150.672 84.7734 143.211 86.9219 133.523 87H100.359ZM117.938 49.8516V72.8789H132.996C137.137 72.8789 140.359 71.9023 142.664 69.9492C145.008 67.957 146.18 65.2227 146.18 61.7461C146.18 53.9336 142.137 49.9688 134.051 49.8516H117.938ZM117.938 37.4297H130.945C139.812 37.2734 144.246 33.7383 144.246 26.8242C144.246 22.957 143.113 20.1836 140.848 18.5039C138.621 16.7852 135.086 15.9258 130.242 15.9258H117.938V37.4297ZM259.078 46.2773C259.078 54.6758 257.594 62.0391 254.625 68.3672C251.656 74.6953 247.398 79.5781 241.852 83.0156C236.344 86.4531 230.016 88.1719 222.867 88.1719C215.797 88.1719 209.488 86.4727 203.941 83.0742C198.395 79.6758 194.098 74.832 191.051 68.543C188.004 62.2148 186.461 54.9492 186.422 46.7461V42.5273C186.422 34.1289 187.926 26.7461 190.934 20.3789C193.98 13.9727 198.258 9.07031 203.766 5.67188C209.312 2.23437 215.641 0.515625 222.75 0.515625C229.859 0.515625 236.168 2.23437 241.676 5.67188C247.223 9.07031 251.5 13.9727 254.508 20.3789C257.555 26.7461 259.078 34.1094 259.078 42.4688V46.2773ZM241.266 42.4102C241.266 33.4648 239.664 26.668 236.461 22.0195C233.258 17.3711 228.688 15.0469 222.75 15.0469C216.852 15.0469 212.301 17.3516 209.098 21.9609C205.895 26.5312 204.273 33.25 204.234 42.1172V46.2773C204.234 54.9883 205.836 61.7461 209.039 66.5508C212.242 71.3555 216.852 73.7578 222.867 73.7578C228.766 73.7578 233.297 71.4531 236.461 66.8438C239.625 62.1953 241.227 55.4375 241.266 46.5703V42.4102ZM353.227 87H335.648L301.43 30.8672V87H283.852V1.6875H301.43L335.707 57.9375V1.6875H353.227V87ZM449.953 87H432.375L398.156 30.8672V87H380.578V1.6875H398.156L432.434 57.9375V1.6875H449.953V87ZM528.633 50.0273H494.883V72.8789H534.492V87H477.305V1.6875H534.375V15.9258H494.883V36.2578H528.633V50.0273ZM575.438 72.8789H618.445V87H553.465V76.6875L595.652 15.9258H553.523V1.6875H617.508V11.7656L575.438 72.8789ZM673.395 57.293H640.406V43.6406H673.395V57.293ZM731.625 65.8477L750.961 1.6875H770.531L740.824 87H722.484L692.895 1.6875H712.406L731.625 65.8477ZM859.875 46.2773C859.875 54.6758 858.391 62.0391 855.422 68.3672C852.453 74.6953 848.195 79.5781 842.648 83.0156C837.141 86.4531 830.812 88.1719 823.664 88.1719C816.594 88.1719 810.285 86.4727 804.738 83.0742C799.191 79.6758 794.895 74.832 791.848 68.543C788.801 62.2148 787.258 54.9492 787.219 46.7461V42.5273C787.219 34.1289 788.723 26.7461 791.73 20.3789C794.777 13.9727 799.055 9.07031 804.562 5.67188C810.109 2.23437 816.438 0.515625 823.547 0.515625C830.656 0.515625 836.965 2.23437 842.473 5.67188C848.02 9.07031 852.297 13.9727 855.305 20.3789C858.352 26.7461 859.875 34.1094 859.875 42.4688V46.2773ZM842.062 42.4102C842.062 33.4648 840.461 26.668 837.258 22.0195C834.055 17.3711 829.484 15.0469 823.547 15.0469C817.648 15.0469 813.098 17.3516 809.895 21.9609C806.691 26.5312 805.07 33.25 805.031 42.1172V46.2773C805.031 54.9883 806.633 61.7461 809.836 66.5508C813.039 71.3555 817.648 73.7578 823.664 73.7578C829.562 73.7578 834.094 71.4531 837.258 66.8438C840.422 62.1953 842.023 55.4375 842.062 46.5703V42.4102ZM949.219 1.6875V57.8789C949.219 67.2148 946.289 74.5977 940.43 80.0273C934.609 85.457 926.641 88.1719 916.523 88.1719C906.562 88.1719 898.652 85.5352 892.793 80.2617C886.934 74.9883 883.945 67.7422 883.828 58.5234V1.6875H901.406V57.9961C901.406 63.582 902.734 67.6641 905.391 70.2422C908.086 72.7812 911.797 74.0508 916.523 74.0508C926.406 74.0508 931.426 68.8555 931.582 58.4648V1.6875H949.219ZM1019.87 64.6172C1019.87 61.2969 1018.7 58.7578 1016.36 57C1014.01 55.2031 1009.79 53.3281 1003.7 51.375C997.605 49.3828 992.781 47.4297 989.227 45.5156C979.539 40.2812 974.695 33.2305 974.695 24.3633C974.695 19.7539 975.984 15.6523 978.562 12.0586C981.18 8.42578 984.91 5.59375 989.754 3.5625C994.637 1.53125 1000.11 0.515625 1006.16 0.515625C1012.25 0.515625 1017.68 1.62891 1022.45 3.85547C1027.21 6.04297 1030.91 9.14844 1033.52 13.1719C1036.18 17.1953 1037.51 21.7656 1037.51 26.8828H1019.93C1019.93 22.9766 1018.7 19.9492 1016.24 17.8008C1013.78 15.6133 1010.32 14.5195 1005.87 14.5195C1001.57 14.5195 998.23 15.4375 995.848 17.2734C993.465 19.0703 992.273 21.4531 992.273 24.4219C992.273 27.1953 993.66 29.5195 996.434 31.3945C999.246 33.2695 1003.37 35.0273 1008.8 36.668C1018.8 39.6758 1026.08 43.4062 1030.65 47.8594C1035.22 52.3125 1037.51 57.8594 1037.51 64.5C1037.51 71.8828 1034.71 77.6836 1029.13 81.9023C1023.54 86.082 1016.02 88.1719 1006.57 88.1719C1000.01 88.1719 994.031 86.9805 988.641 84.5977C983.25 82.1758 979.129 78.875 976.277 74.6953C973.465 70.5156 972.059 65.6719 972.059 60.1641H989.695C989.695 69.5781 995.32 74.2852 1006.57 74.2852C1010.75 74.2852 1014.01 73.4453 1016.36 71.7656C1018.7 70.0469 1019.87 67.6641 1019.87 64.6172Z" fill="#666D74" fill-opacity="0.3"/>
</svg>
