<svg height="512pt" viewBox="0 -31 512 512" width="512pt" xmlns="http://www.w3.org/2000/svg"><path d="m256 196.796875c-33.789062 0-61.28125 27.492187-61.28125 61.28125v24.101563h-6.3125c-7.820312 0-14.179688 6.359374-14.179688 14.179687v96.6875c0 7.816406 6.359376 14.175781 14.179688 14.175781h135.1875c7.816406 0 14.179688-6.359375 14.179688-14.175781v-96.6875c0-7.816406-6.363282-14.179687-14.179688-14.179687h-6.3125v-24.101563c0-33.789063-27.492188-61.28125-61.28125-61.28125zm-46.28125 61.28125c0-25.519531 20.761719-46.28125 46.28125-46.28125s46.28125 20.761719 46.28125 46.28125v24.101563h-92.5625zm113.054688 39.101563v95.042968h-133.546876v-95.042968zm0 0"/><path d="m221.128906 366.960938c4.140625 0 7.5-3.355469 7.5-7.5v-23.015626c0-4.144531-3.359375-7.5-7.5-7.5-4.144531 0-7.5 3.355469-7.5 7.5v23.015626c0 4.144531 3.355469 7.5 7.5 7.5zm0 0"/><path d="m256 366.960938c4.140625 0 7.5-3.355469 7.5-7.5v-23.015626c0-4.144531-3.359375-7.5-7.5-7.5s-7.5 3.355469-7.5 7.5v23.015626c0 4.144531 3.359375 7.5 7.5 7.5zm0 0"/><path d="m290.871094 366.960938c4.144531 0 7.5-3.355469 7.5-7.5v-23.015626c0-4.144531-3.355469-7.5-7.5-7.5-4.140625 0-7.5 3.355469-7.5 7.5v23.015626c0 4.144531 3.359375 7.5 7.5 7.5zm0 0"/><path d="m504.5 376.589844c4.140625 0 7.5-3.359375 7.5-7.5v-202.589844c0-11.648438-9.476562-21.125-21.125-21.125h-1.390625v-71.195312c0-14.007813-11.398437-25.402344-25.40625-25.402344h-199.253906c-3.210938 0-6.296875-1.519532-8.25-4.066406l-26.714844-34.777344c-4.773437-6.21875-12.304687-9.933594-20.144531-9.933594h-161.792969c-14.007813 0-25.40625 11.394531-25.40625 25.402344v40.929687c0 4.140625 3.359375 7.5 7.5 7.5 4.144531 0 7.5-3.359375 7.5-7.5v-40.929687c0-5.738282 4.667969-10.402344 10.40625-10.402344h161.792969c3.210937 0 6.292968 1.519531 8.25 4.066406l26.710937 34.777344c4.773438 6.21875 12.308594 9.933594 20.148438 9.933594h199.253906c5.738281 0 10.40625 4.664062 10.40625 10.402344v71.195312h-17.746094v-44.644531c0-9.25-7.527343-16.777344-16.777343-16.777344h-367.917969c-9.253907 0-16.78125 7.527344-16.78125 16.777344v44.644531h-17.746094v-43.984375c0-4.144531-3.355469-7.5-7.5-7.5-4.140625 0-7.5 3.355469-7.5 7.5v43.984375h-1.390625c-11.648438 0-21.125 9.476562-21.125 21.125v262.929688c0 11.648437 9.476562 21.125 21.125 21.125h469.75c11.648438 0 21.125-9.476563 21.125-21.125v-25.417969c0-4.144531-3.359375-7.5-7.5-7.5-4.144531 0-7.5 3.355469-7.5 7.5v25.417969c0 3.378906-2.75 6.125-6.125 6.125h-469.75c-3.378906 0-6.125-2.746094-6.125-6.125v-262.929688c0-3.378906 2.746094-6.125 6.125-6.125h469.75c3.375 0 6.125 2.746094 6.125 6.125v202.589844c0 4.140625 3.359375 7.5 7.5 7.5zm-62.761719-231.214844h-371.476562v-44.644531c0-.980469.796875-1.777344 1.777343-1.777344h367.917969c.980469 0 1.78125.796875 1.78125 1.777344zm0 0"/></svg>