<?xml version="1.0" encoding="iso-8859-1"?>
<!-- Generator: Adobe Illustrator 19.0.0, SVG Export Plug-In . SVG Version: 6.00 Build 0)  -->
<svg version="1.1" id="Layer_1" xmlns="http://www.w3.org/2000/svg" xmlns:xlink="http://www.w3.org/1999/xlink" x="0px" y="0px"
	 viewBox="0 0 512 512" style="enable-background:new 0 0 512 512;" xml:space="preserve">
<g>
	<g>
		<g>
			<path d="M469.333,362.667v-256c0-23.531-19.146-42.667-42.667-42.667h-384C19.146,64,0,83.135,0,106.667v256
				c0,23.531,19.146,42.667,42.667,42.667h384C450.188,405.333,469.333,386.198,469.333,362.667z M149.333,149.333
				C172.854,149.333,192,168.469,192,192s-19.146,42.667-42.667,42.667c-23.521,0-42.667-19.135-42.667-42.667
				S125.813,149.333,149.333,149.333z M234.667,299.333c0,11.396-9.563,20.667-21.333,20.667h-128C73.563,320,64,310.729,64,299.333
				v-4.875c0-14.188,8.271-26.99,21.604-33.406c14.917-7.167,38.063-15.719,63.729-15.719c25.667,0,48.813,8.552,63.729,15.719
				c13.333,6.417,21.604,19.219,21.604,33.406V299.333z M394.667,320h-128c-5.896,0-10.667-4.771-10.667-10.667
				c0-5.896,4.771-10.667,10.667-10.667h128c5.896,0,10.667,4.771,10.667,10.667C405.333,315.229,400.563,320,394.667,320z
				 M394.667,256h-128c-5.896,0-10.667-4.771-10.667-10.667c0-5.896,4.771-10.667,10.667-10.667h128
				c5.896,0,10.667,4.771,10.667,10.667C405.333,251.229,400.563,256,394.667,256z M394.667,192h-128
				c-5.896,0-10.667-4.771-10.667-10.667c0-5.896,4.771-10.667,10.667-10.667h128c5.896,0,10.667,4.771,10.667,10.667
				C405.333,187.229,400.563,192,394.667,192z"/>
			<path d="M490.667,112.954V384c0,23.531-19.146,42.667-42.667,42.667H48.953C56.367,439.27,69.686,448,85.333,448h384
				C492.854,448,512,428.865,512,405.333v-256C512,133.681,503.267,120.367,490.667,112.954z"/>
		</g>
	</g>
</g>
<g>
</g>
<g>
</g>
<g>
</g>
<g>
</g>
<g>
</g>
<g>
</g>
<g>
</g>
<g>
</g>
<g>
</g>
<g>
</g>
<g>
</g>
<g>
</g>
<g>
</g>
<g>
</g>
<g>
</g>
</svg>
